<svg width="595" height="143" viewBox="0 0 595 143" fill="none" xmlns="http://www.w3.org/2000/svg">
<path d="M0.171387 0L24.9559 9.0065C49.7404 18.013 99.3095 36.026 148.879 43.5408C198.448 50.943 248.017 48.1285 297.586 40.5293C347.155 32.93 396.724 21.109 446.293 18.013C495.862 14.917 545.431 21.109 570.216 24.008L595 27.0195V72.052H570.216C545.431 72.052 495.862 72.052 446.293 72.052C396.724 72.052 347.155 72.052 297.586 72.052C248.017 72.052 198.448 72.052 148.879 72.052C99.3095 72.052 49.7404 72.052 24.9559 72.052H0.171387V0Z" fill="#222831"/>
<path d="M594.9 142.409L570.112 133.402C545.325 124.396 495.749 106.383 446.178 98.8681C396.606 91.4659 347.038 94.2805 297.472 101.88C247.905 109.479 198.34 121.3 148.772 124.396C99.2041 127.492 49.6329 121.3 24.8474 118.401L0.0618136 115.389L0.0465215 70.3569H24.8311C49.6156 70.3569 99.1847 70.3569 148.754 70.3569C198.323 70.3569 247.892 70.3569 297.461 70.3569C347.03 70.3569 396.599 70.3569 446.168 70.3569C495.737 70.3569 545.306 70.3569 570.091 70.3569H594.875L594.9 142.409Z" fill="#222831"/>
</svg>
