<svg width="595" height="143" viewBox="0 0 595 143" fill="none" xmlns="http://www.w3.org/2000/svg">
<path d="M0 0L24.7845 9.0065C49.5691 18.013 99.1381 36.026 148.707 43.5408C198.276 50.943 247.845 48.1285 297.414 40.5293C346.983 32.93 396.552 21.109 446.121 18.013C495.691 14.917 545.26 21.109 570.044 24.008L594.829 27.0195V72.052H570.044C545.26 72.052 495.691 72.052 446.121 72.052C396.552 72.052 346.983 72.052 297.414 72.052C247.845 72.052 198.276 72.052 148.707 72.052C99.1381 72.052 49.5691 72.052 24.7845 72.052H0V0Z" fill="#222831"/>
<path d="M594.953 142.409L570.166 133.402C545.378 124.396 495.803 106.383 446.231 98.8681C396.66 91.4659 347.092 94.2804 297.525 101.88C247.959 109.479 198.394 121.3 148.826 124.396C99.2577 127.492 49.6865 121.3 24.901 118.401L0.115433 115.389L0.100141 70.3569H24.8847C49.6692 70.3569 99.2383 70.3569 148.807 70.3569C198.376 70.3569 247.945 70.3569 297.515 70.3569C347.084 70.3569 396.653 70.3569 446.222 70.3569C495.791 70.3569 545.36 70.3569 570.144 70.3569H594.929L594.953 142.409Z" fill="#222831"/>
</svg>
