<svg width="595" height="143" viewBox="0 0 595 143" fill="none" xmlns="http://www.w3.org/2000/svg">
<path d="M595 0L570.216 9.0065C545.431 18.013 495.862 36.026 446.293 43.5408C396.724 50.943 347.155 48.1285 297.586 40.5293C248.017 32.93 198.448 21.109 148.879 18.013C99.3095 14.917 49.7404 21.109 24.9559 24.008L0.171379 27.0195V72.052H24.9559C49.7404 72.052 99.3095 72.052 148.879 72.052C198.448 72.052 248.017 72.052 297.586 72.052C347.155 72.052 396.724 72.052 446.293 72.052C495.862 72.052 545.431 72.052 570.216 72.052H595V0Z" fill="#222831"/>
<path d="M0.0466003 142.409L24.8342 133.402C49.6218 124.396 99.197 106.383 148.769 98.8681C198.34 91.4659 247.908 94.2804 297.475 101.88C347.041 109.479 396.606 121.3 446.174 124.396C495.742 127.492 545.314 121.3 570.099 118.401L594.885 115.389L594.9 70.3569H570.115C545.331 70.3569 495.762 70.3569 446.193 70.3569C396.624 70.3569 347.055 70.3569 297.485 70.3569C247.916 70.3569 198.347 70.3569 148.778 70.3569C99.2092 70.3569 49.6401 70.3569 24.8556 70.3569H0.0710676L0.0466003 142.409Z" fill="#222831"/>
</svg>
